<svg xmlns="http://www.w3.org/2000/svg" viewBox="0 0 120 150">
<rect width="120" height="150" rx="22" fill="#0e0e11"/>
<path d="M41 45 C41 21 48 12 60 12 C72 12 79 21 79 45 Q60 51 41 45 Z" fill="#f1f1f3"/>
<path d="M42 38 Q60 44 78 38 L78 43 Q60 49 42 43 Z" fill="#e8332a"/>
<ellipse cx="60" cy="47" rx="41" ry="7" fill="#f1f1f3"/>
<g fill="none" stroke="#f1f1f3" stroke-width="4.5" stroke-linejoin="round" stroke-linecap="round">
<path d="M37 54 v7"/><circle cx="37" cy="66" r="4.2"/>
<path d="M83 54 v7"/><circle cx="83" cy="66" r="4.2"/>
<path d="M60 56 L76 65 V82 L60 91 L44 82 V65 Z"/>
<path d="M44 96 L60 106 L76 96"/>
</g>
<path d="M43 113 L58 119 L43 125 Q40.5 119 43 113 Z" fill="#f1f1f3"/>
<path d="M77 113 L62 119 L77 125 Q79.5 119 77 113 Z" fill="#f1f1f3"/>
<rect x="56" y="111" width="8" height="16" rx="2.5" fill="#e8332a"/>
</svg>
