<svg xmlns="http://www.w3.org/2000/svg" viewBox="0 0 120 140">
<rect width="120" height="140" rx="20" fill="#0e0e11"/>
<g transform="translate(0,2)">
<path d="M41 42 C41 20 48 11 60 11 C72 11 79 20 79 42 Q60 48 41 42 Z" fill="#f1f1f3"/>
<path d="M41 33 Q60 40 79 33 L79 42 Q60 48 41 42 Z" fill="#e8332a"/>
<ellipse cx="60" cy="47" rx="38" ry="7.5" fill="#f1f1f3"/>
<g fill="none" stroke="#f1f1f3" stroke-width="4.5" stroke-linejoin="round" stroke-linecap="round">
<path d="M37 53 v8"/><circle cx="37" cy="66" r="4.5"/>
<path d="M83 53 v8"/><circle cx="83" cy="66" r="4.5"/>
<path d="M60 56 L75 64.5 V81 L60 89.5 L45 81 V64.5 Z"/>
<path d="M40 95 L60 107 L80 95"/>
</g>
<path d="M42 113 L57 119 L42 125 Q39.5 119 42 113 Z" fill="#f1f1f3"/>
<path d="M78 113 L63 119 L78 125 Q80.5 119 78 113 Z" fill="#f1f1f3"/>
<rect x="56" y="111.5" width="8" height="15" rx="2.5" fill="#e8332a"/>
</g>
</svg>
