<svg xmlns="http://www.w3.org/2000/svg" viewBox="0 0 527 722"><path fill="#fff" fill-rule="evenodd" d="M 268.00 590.50 L 263.00 590.50 L 262.00 589.50 L 261.00 589.50 L 260.00 588.50 L 259.00 588.50 L 258.00 587.50 L 257.00 587.50 L 256.00 586.50 L 255.00 586.50 L 254.00 585.50 L 253.00 585.50 L 252.00 584.50 L 251.00 584.50 L 250.00 583.50 L 249.00 583.50 L 248.00 582.50 L 247.00 582.50 L 246.00 581.50 L 245.00 581.50 L 244.00 580.50 L 241.00 579.50 L 239.00 577.50 L 238.00 577.50 L 237.00 576.50 L 236.00 576.50 L 235.00 575.50 L 234.00 575.50 L 233.00 574.50 L 232.00 574.50 L 231.00 573.50 L 230.00 573.50 L 229.00 572.50 L 228.00 572.50 L 227.00 571.50 L 226.00 571.50 L 225.00 570.50 L 224.00 570.50 L 223.00 569.50 L 222.00 569.50 L 221.00 568.50 L 220.00 568.50 L 219.00 567.50 L 218.00 567.50 L 217.00 566.50 L 216.00 566.50 L 215.00 565.50 L 212.00 564.50 L 210.00 562.50 L 209.00 562.50 L 208.00 561.50 L 207.00 561.50 L 206.00 560.50 L 205.00 560.50 L 204.00 559.50 L 203.00 559.50 L 202.00 558.50 L 201.00 558.50 L 200.00 557.50 L 199.00 557.50 L 198.00 556.50 L 197.00 556.50 L 196.00 555.50 L 195.00 555.50 L 194.00 554.50 L 193.00 554.50 L 192.00 553.50 L 191.00 553.50 L 190.00 552.50 L 189.00 552.50 L 188.00 551.50 L 187.00 551.50 L 186.00 550.50 L 185.00 550.50 L 184.00 549.50 L 183.00 549.50 L 182.00 548.50 L 181.00 548.50 L 180.00 547.50 L 177.00 546.50 L 175.00 544.50 L 174.00 544.50 L 173.00 543.50 L 172.00 543.50 L 171.00 542.50 L 170.00 542.50 L 169.00 541.50 L 168.00 541.50 L 167.00 540.50 L 166.00 540.50 L 165.00 539.50 L 164.00 539.50 L 163.00 538.50 L 162.00 538.50 L 161.00 537.50 L 160.00 537.50 L 159.00 536.50 L 158.00 536.50 L 157.00 535.50 L 154.00 534.50 L 152.00 532.50 L 151.00 532.50 L 150.00 531.50 L 149.00 531.50 L 148.00 530.50 L 147.00 530.50 L 146.00 529.50 L 145.00 529.50 L 144.00 528.50 L 143.00 528.50 L 142.00 527.50 L 141.00 527.50 L 140.00 526.50 L 139.00 526.50 L 138.00 525.50 L 137.00 525.50 L 136.00 524.50 L 133.00 523.50 L 131.00 521.50 L 130.00 521.50 L 129.00 520.50 L 128.00 520.50 L 127.00 519.50 L 126.00 519.50 L 125.00 518.50 L 124.00 518.50 L 123.00 517.50 L 122.00 517.50 L 121.00 516.50 L 120.00 516.50 L 119.00 515.50 L 118.00 515.50 L 117.00 514.50 L 116.00 514.50 L 115.00 513.50 L 114.00 513.50 L 113.00 512.50 L 110.00 511.50 L 108.00 509.50 L 107.00 509.50 L 106.00 508.50 L 105.00 508.50 L 104.00 507.50 L 103.00 507.50 L 102.00 506.50 L 101.00 506.50 L 100.00 505.50 L 99.00 505.50 L 98.00 504.50 L 95.00 503.50 L 93.00 501.50 L 90.00 500.50 L 88.50 499.00 L 88.50 498.00 L 86.50 495.00 L 86.50 487.00 L 87.50 486.00 L 87.50 485.00 L 90.00 482.50 L 91.00 482.50 L 92.00 481.50 L 97.00 481.50 L 98.00 482.50 L 100.00 482.50 L 101.00 483.50 L 102.00 483.50 L 103.00 484.50 L 104.00 484.50 L 105.00 485.50 L 106.00 485.50 L 107.00 486.50 L 108.00 486.50 L 109.00 487.50 L 110.00 487.50 L 111.00 488.50 L 112.00 488.50 L 113.00 489.50 L 114.00 489.50 L 115.00 490.50 L 116.00 490.50 L 117.00 491.50 L 118.00 491.50 L 119.00 492.50 L 120.00 492.50 L 121.00 493.50 L 122.00 493.50 L 123.00 494.50 L 124.00 494.50 L 125.00 495.50 L 128.00 496.50 L 130.00 498.50 L 131.00 498.50 L 132.00 499.50 L 133.00 499.50 L 134.00 500.50 L 135.00 500.50 L 136.00 501.50 L 137.00 501.50 L 138.00 502.50 L 139.00 502.50 L 140.00 503.50 L 141.00 503.50 L 142.00 504.50 L 143.00 504.50 L 144.00 505.50 L 145.00 505.50 L 146.00 506.50 L 147.00 506.50 L 148.00 507.50 L 149.00 507.50 L 150.00 508.50 L 151.00 508.50 L 152.00 509.50 L 153.00 509.50 L 154.00 510.50 L 157.00 511.50 L 159.00 513.50 L 160.00 513.50 L 161.00 514.50 L 162.00 514.50 L 163.00 515.50 L 164.00 515.50 L 165.00 516.50 L 166.00 516.50 L 167.00 517.50 L 168.00 517.50 L 169.00 518.50 L 170.00 518.50 L 171.00 519.50 L 172.00 519.50 L 173.00 520.50 L 174.00 520.50 L 175.00 521.50 L 176.00 521.50 L 177.00 522.50 L 180.00 523.50 L 182.00 525.50 L 183.00 525.50 L 184.00 526.50 L 185.00 526.50 L 186.00 527.50 L 187.00 527.50 L 188.00 528.50 L 189.00 528.50 L 190.00 529.50 L 191.00 529.50 L 192.00 530.50 L 193.00 530.50 L 194.00 531.50 L 195.00 531.50 L 196.00 532.50 L 199.00 533.50 L 201.00 535.50 L 202.00 535.50 L 203.00 536.50 L 204.00 536.50 L 205.00 537.50 L 206.00 537.50 L 207.00 538.50 L 208.00 538.50 L 209.00 539.50 L 210.00 539.50 L 211.00 540.50 L 212.00 540.50 L 213.00 541.50 L 214.00 541.50 L 215.00 542.50 L 218.00 543.50 L 220.00 545.50 L 221.00 545.50 L 222.00 546.50 L 223.00 546.50 L 224.00 547.50 L 225.00 547.50 L 226.00 548.50 L 227.00 548.50 L 228.00 549.50 L 229.00 549.50 L 230.00 550.50 L 231.00 550.50 L 232.00 551.50 L 233.00 551.50 L 234.00 552.50 L 235.00 552.50 L 236.00 553.50 L 237.00 553.50 L 238.00 554.50 L 241.00 555.50 L 243.00 557.50 L 244.00 557.50 L 245.00 558.50 L 246.00 558.50 L 247.00 559.50 L 248.00 559.50 L 249.00 560.50 L 250.00 560.50 L 251.00 561.50 L 252.00 561.50 L 253.00 562.50 L 256.00 563.50 L 258.00 565.50 L 259.00 565.50 L 262.00 567.50 L 266.00 567.50 L 267.00 566.50 L 268.00 566.50 L 270.00 564.50 L 273.00 563.50 L 275.00 561.50 L 278.00 560.50 L 280.00 558.50 L 283.00 557.50 L 285.00 555.50 L 288.00 554.50 L 290.00 552.50 L 293.00 551.50 L 295.00 549.50 L 298.00 548.50 L 300.00 546.50 L 303.00 545.50 L 305.00 543.50 L 306.00 543.50 L 307.00 542.50 L 310.00 541.50 L 312.00 539.50 L 315.00 538.50 L 317.00 536.50 L 320.00 535.50 L 322.00 533.50 L 325.00 532.50 L 327.00 530.50 L 328.00 530.50 L 329.00 529.50 L 330.00 529.50 L 332.00 527.50 L 335.00 526.50 L 337.00 524.50 L 338.00 524.50 L 339.00 523.50 L 342.00 522.50 L 344.00 520.50 L 347.00 519.50 L 349.00 517.50 L 352.00 516.50 L 354.00 514.50 L 357.00 513.50 L 359.00 511.50 L 360.00 511.50 L 361.00 510.50 L 364.00 509.50 L 366.00 507.50 L 369.00 506.50 L 371.00 504.50 L 374.00 503.50 L 376.00 501.50 L 379.00 500.50 L 381.00 498.50 L 384.00 497.50 L 386.00 495.50 L 389.00 494.50 L 391.00 492.50 L 394.00 491.50 L 396.00 489.50 L 397.00 489.50 L 398.00 488.50 L 401.00 487.50 L 403.00 485.50 L 406.00 484.50 L 408.00 482.50 L 411.00 481.50 L 413.00 479.50 L 416.00 478.50 L 418.00 476.50 L 419.00 476.50 L 421.00 474.50 L 424.00 473.50 L 425.50 472.00 L 425.50 428.00 L 426.50 427.00 L 426.50 299.00 L 426.00 298.50 L 422.00 298.50 L 421.00 299.50 L 416.00 299.50 L 415.00 300.50 L 411.00 300.50 L 410.00 301.50 L 405.00 301.50 L 404.00 302.50 L 398.00 302.50 L 397.00 303.50 L 391.00 303.50 L 390.00 304.50 L 383.00 304.50 L 382.50 305.00 L 382.50 308.00 L 384.50 310.00 L 384.50 312.00 L 385.50 313.00 L 385.50 357.00 L 387.00 358.50 L 388.00 358.50 L 389.00 359.50 L 390.00 359.50 L 392.00 361.50 L 393.00 361.50 L 400.50 369.00 L 400.50 370.00 L 401.50 371.00 L 401.50 372.00 L 404.50 377.00 L 404.50 380.00 L 405.50 381.00 L 405.50 392.00 L 404.50 393.00 L 404.50 396.00 L 403.50 397.00 L 403.50 399.00 L 402.50 400.00 L 401.50 403.00 L 399.50 405.00 L 399.50 406.00 L 392.00 413.50 L 389.00 414.50 L 387.00 416.50 L 385.00 416.50 L 384.00 417.50 L 382.00 417.50 L 381.00 418.50 L 376.00 418.50 L 375.00 419.50 L 372.00 419.50 L 371.00 418.50 L 367.00 418.50 L 366.00 417.50 L 364.00 417.50 L 363.00 416.50 L 361.00 416.50 L 360.00 415.50 L 357.00 414.50 L 354.00 411.50 L 353.00 411.50 L 347.50 406.00 L 347.50 405.00 L 345.50 403.00 L 345.50 402.00 L 342.50 397.00 L 342.50 394.00 L 341.50 393.00 L 341.50 382.00 L 342.50 381.00 L 342.50 377.00 L 343.50 376.00 L 343.50 375.00 L 344.50 374.00 L 344.50 373.00 L 345.50 372.00 L 346.50 369.00 L 349.50 366.00 L 349.50 365.00 L 351.00 363.50 L 352.00 363.50 L 355.00 360.50 L 356.00 360.50 L 358.00 358.50 L 359.00 358.50 L 360.00 357.50 L 362.00 357.50 L 364.50 356.00 L 364.50 347.00 L 365.50 346.00 L 365.50 322.00 L 363.00 319.50 L 362.00 319.50 L 361.00 318.50 L 360.00 318.50 L 359.00 317.50 L 358.00 317.50 L 357.00 316.50 L 356.00 316.50 L 355.00 315.50 L 352.00 314.50 L 350.00 312.50 L 347.00 311.50 L 342.00 307.50 L 340.00 307.50 L 339.00 308.50 L 308.00 308.50 L 307.00 307.50 L 279.00 307.50 L 278.00 306.50 L 260.00 306.50 L 259.00 305.50 L 248.00 305.50 L 247.50 305.00 L 248.00 304.50 L 332.00 304.50 L 332.50 304.00 L 332.50 302.00 L 330.00 299.50 L 329.00 299.50 L 326.00 296.50 L 325.00 296.50 L 322.00 293.50 L 321.00 293.50 L 317.00 289.50 L 316.00 289.50 L 313.00 286.50 L 312.00 286.50 L 309.00 283.50 L 308.00 283.50 L 304.00 279.50 L 303.00 279.50 L 300.00 276.50 L 299.00 276.50 L 295.00 272.50 L 294.00 272.50 L 291.00 269.50 L 290.00 269.50 L 287.00 266.50 L 286.00 266.50 L 282.00 262.50 L 281.00 262.50 L 278.00 259.50 L 277.00 259.50 L 274.00 256.50 L 273.00 256.50 L 269.00 252.50 L 268.00 252.50 L 265.00 249.50 L 264.00 249.50 L 262.00 247.50 L 260.00 247.50 L 258.00 249.50 L 257.00 249.50 L 253.00 253.50 L 252.00 253.50 L 249.00 256.50 L 248.00 256.50 L 244.00 260.50 L 243.00 260.50 L 240.00 263.50 L 239.00 263.50 L 235.00 267.50 L 234.00 267.50 L 231.00 270.50 L 230.00 270.50 L 226.00 274.50 L 225.00 274.50 L 222.00 277.50 L 221.00 277.50 L 212.00 285.50 L 211.00 285.50 L 208.00 288.50 L 207.00 288.50 L 203.00 292.50 L 202.00 292.50 L 199.00 295.50 L 197.50 296.00 L 197.50 298.00 L 200.00 299.50 L 206.00 299.50 L 207.00 300.50 L 217.00 300.50 L 217.50 301.00 L 217.00 301.50 L 213.00 301.50 L 211.00 303.50 L 210.00 303.50 L 209.00 304.50 L 208.00 304.50 L 207.00 305.50 L 204.00 306.50 L 202.00 308.50 L 201.00 308.50 L 200.00 309.50 L 197.00 310.50 L 195.00 312.50 L 192.00 313.50 L 190.00 315.50 L 187.00 316.50 L 185.00 318.50 L 182.00 319.50 L 180.00 321.50 L 177.00 322.50 L 175.00 324.50 L 174.00 324.50 L 173.00 325.50 L 170.00 326.50 L 168.00 328.50 L 165.00 329.50 L 163.00 331.50 L 161.50 332.00 L 161.50 441.00 L 163.00 442.50 L 166.00 443.50 L 168.00 445.50 L 169.00 445.50 L 170.00 446.50 L 173.00 447.50 L 175.00 449.50 L 176.00 449.50 L 177.00 450.50 L 180.00 451.50 L 182.00 453.50 L 183.00 453.50 L 184.00 454.50 L 185.00 454.50 L 186.00 455.50 L 189.00 456.50 L 191.00 458.50 L 192.00 458.50 L 193.00 459.50 L 196.00 460.50 L 198.00 462.50 L 199.00 462.50 L 200.00 463.50 L 203.00 464.50 L 205.00 466.50 L 206.00 466.50 L 207.00 467.50 L 208.00 467.50 L 209.00 468.50 L 212.00 469.50 L 214.00 471.50 L 215.00 471.50 L 216.00 472.50 L 219.00 473.50 L 221.00 475.50 L 222.00 475.50 L 223.00 476.50 L 226.00 477.50 L 228.00 479.50 L 229.00 479.50 L 230.00 480.50 L 233.00 481.50 L 235.00 483.50 L 236.00 483.50 L 237.00 484.50 L 240.00 485.50 L 242.00 487.50 L 243.00 487.50 L 244.00 488.50 L 247.00 489.50 L 249.00 491.50 L 250.00 491.50 L 251.00 492.50 L 254.00 493.50 L 256.00 495.50 L 257.00 495.50 L 258.00 496.50 L 262.00 496.50 L 263.00 495.50 L 264.00 495.50 L 266.00 493.50 L 269.00 492.50 L 271.00 490.50 L 274.00 489.50 L 276.00 487.50 L 277.00 487.50 L 278.00 486.50 L 281.00 485.50 L 283.00 483.50 L 284.00 483.50 L 285.00 482.50 L 288.00 481.50 L 290.00 479.50 L 293.00 478.50 L 295.00 476.50 L 296.00 476.50 L 297.00 475.50 L 300.00 474.50 L 302.00 472.50 L 303.00 472.50 L 304.00 471.50 L 307.00 470.50 L 309.00 468.50 L 310.00 468.50 L 311.00 467.50 L 314.00 466.50 L 316.00 464.50 L 317.00 464.50 L 318.00 463.50 L 321.00 462.50 L 323.00 460.50 L 324.00 460.50 L 325.00 459.50 L 326.00 459.50 L 328.00 457.50 L 329.00 457.50 L 330.00 456.50 L 331.00 456.50 L 332.00 455.50 L 335.00 454.50 L 340.00 450.50 L 341.00 450.50 L 346.00 447.50 L 349.00 447.50 L 350.00 448.50 L 352.00 448.50 L 355.50 452.00 L 355.50 453.00 L 357.50 456.00 L 357.50 461.00 L 356.50 462.00 L 355.50 465.00 L 354.00 466.50 L 353.00 466.50 L 351.00 468.50 L 348.00 469.50 L 346.00 471.50 L 345.00 471.50 L 344.00 472.50 L 341.00 473.50 L 336.00 477.50 L 335.00 477.50 L 334.00 478.50 L 331.00 479.50 L 329.00 481.50 L 326.00 482.50 L 324.00 484.50 L 321.00 485.50 L 319.00 487.50 L 316.00 488.50 L 314.00 490.50 L 311.00 491.50 L 309.00 493.50 L 308.00 493.50 L 307.00 494.50 L 304.00 495.50 L 302.00 497.50 L 299.00 498.50 L 297.00 500.50 L 294.00 501.50 L 292.00 503.50 L 289.00 504.50 L 287.00 506.50 L 284.00 507.50 L 282.00 509.50 L 279.00 510.50 L 277.00 512.50 L 276.00 512.50 L 275.00 513.50 L 274.00 513.50 L 272.00 515.50 L 269.00 516.50 L 267.00 518.50 L 266.00 518.50 L 263.00 520.50 L 258.00 520.50 L 257.00 519.50 L 256.00 519.50 L 255.00 518.50 L 252.00 517.50 L 250.00 515.50 L 249.00 515.50 L 248.00 514.50 L 245.00 513.50 L 243.00 511.50 L 242.00 511.50 L 241.00 510.50 L 238.00 509.50 L 236.00 507.50 L 235.00 507.50 L 234.00 506.50 L 231.00 505.50 L 229.00 503.50 L 228.00 503.50 L 227.00 502.50 L 224.00 501.50 L 222.00 499.50 L 221.00 499.50 L 220.00 498.50 L 217.00 497.50 L 215.00 495.50 L 214.00 495.50 L 213.00 494.50 L 212.00 494.50 L 210.00 492.50 L 209.00 492.50 L 208.00 491.50 L 205.00 490.50 L 203.00 488.50 L 202.00 488.50 L 201.00 487.50 L 200.00 487.50 L 199.00 486.50 L 196.00 485.50 L 194.00 483.50 L 193.00 483.50 L 192.00 482.50 L 189.00 481.50 L 187.00 479.50 L 186.00 479.50 L 185.00 478.50 L 182.00 477.50 L 180.00 475.50 L 179.00 475.50 L 178.00 474.50 L 175.00 473.50 L 173.00 471.50 L 172.00 471.50 L 171.00 470.50 L 168.00 469.50 L 166.00 467.50 L 165.00 467.50 L 164.00 466.50 L 161.00 465.50 L 159.00 463.50 L 158.00 463.50 L 157.00 462.50 L 154.00 461.50 L 152.00 459.50 L 151.00 459.50 L 150.00 458.50 L 147.00 457.50 L 145.00 455.50 L 144.00 455.50 L 141.50 453.00 L 141.50 452.00 L 140.50 451.00 L 140.50 322.00 L 141.50 321.00 L 141.50 320.00 L 144.00 317.50 L 145.00 317.50 L 146.00 316.50 L 147.00 316.50 L 149.00 314.50 L 150.00 314.50 L 151.00 313.50 L 154.00 312.50 L 156.00 310.50 L 157.00 310.50 L 158.00 309.50 L 159.00 309.50 L 160.00 308.50 L 163.00 307.50 L 165.00 305.50 L 166.00 305.50 L 167.00 304.50 L 168.00 304.50 L 169.00 303.50 L 170.00 303.50 L 171.00 302.50 L 174.00 301.50 L 176.00 299.50 L 178.00 299.50 L 178.50 299.00 L 178.50 297.00 L 178.00 296.50 L 175.00 296.50 L 174.00 295.50 L 170.00 295.50 L 169.00 294.50 L 165.00 294.50 L 164.00 293.50 L 160.00 293.50 L 159.00 292.50 L 156.00 292.50 L 155.50 292.00 L 156.00 291.50 L 160.00 291.50 L 161.00 292.50 L 164.00 292.50 L 165.00 291.50 L 166.00 291.50 L 169.00 288.50 L 170.00 288.50 L 174.00 284.50 L 175.00 284.50 L 178.00 281.50 L 179.00 281.50 L 183.00 277.50 L 184.00 277.50 L 187.00 274.50 L 188.00 274.50 L 192.00 270.50 L 193.00 270.50 L 196.00 267.50 L 197.00 267.50 L 201.00 263.50 L 202.00 263.50 L 205.00 260.50 L 206.00 260.50 L 215.00 252.50 L 216.00 252.50 L 219.00 249.50 L 220.00 249.50 L 224.00 245.50 L 225.00 245.50 L 228.00 242.50 L 229.00 242.50 L 233.00 238.50 L 234.00 238.50 L 237.00 235.50 L 238.00 235.50 L 242.00 231.50 L 243.00 231.50 L 246.00 228.50 L 247.00 228.50 L 254.00 221.50 L 255.00 221.50 L 258.00 219.50 L 264.00 219.50 L 265.00 220.50 L 268.00 221.50 L 270.00 223.50 L 271.00 223.50 L 275.00 227.50 L 276.00 227.50 L 279.00 230.50 L 280.00 230.50 L 283.00 233.50 L 284.00 233.50 L 288.00 237.50 L 289.00 237.50 L 292.00 240.50 L 293.00 240.50 L 296.00 243.50 L 297.00 243.50 L 301.00 247.50 L 302.00 247.50 L 305.00 250.50 L 306.00 250.50 L 309.00 253.50 L 310.00 253.50 L 314.00 257.50 L 315.00 257.50 L 318.00 260.50 L 319.00 260.50 L 323.00 264.50 L 324.00 264.50 L 327.00 267.50 L 328.00 267.50 L 331.00 270.50 L 332.00 270.50 L 336.00 274.50 L 337.00 274.50 L 340.00 277.50 L 341.00 277.50 L 344.00 280.50 L 345.00 280.50 L 349.00 284.50 L 350.00 284.50 L 353.00 287.50 L 354.00 287.50 L 357.00 290.50 L 358.00 290.50 L 362.00 294.50 L 363.00 294.50 L 364.50 296.00 L 363.50 297.00 L 363.50 298.00 L 360.50 301.00 L 360.50 304.00 L 361.00 304.50 L 378.00 304.50 L 379.00 303.50 L 387.00 303.50 L 388.00 302.50 L 395.00 302.50 L 396.00 301.50 L 402.00 301.50 L 403.00 300.50 L 409.00 300.50 L 410.00 299.50 L 414.00 299.50 L 415.00 298.50 L 420.00 298.50 L 421.00 297.50 L 425.00 297.50 L 428.00 295.50 L 432.00 295.50 L 433.00 294.50 L 436.00 294.50 L 437.00 293.50 L 440.00 293.50 L 441.00 292.50 L 444.00 292.50 L 445.00 291.50 L 449.00 291.50 L 449.50 292.00 L 447.50 293.00 L 447.50 394.00 L 446.50 395.00 L 446.50 482.00 L 445.50 483.00 L 445.50 484.00 L 443.00 486.50 L 442.00 486.50 L 440.00 488.50 L 437.00 489.50 L 435.00 491.50 L 432.00 492.50 L 430.00 494.50 L 427.00 495.50 L 425.00 497.50 L 422.00 498.50 L 420.00 500.50 L 417.00 501.50 L 415.00 503.50 L 412.00 504.50 L 410.00 506.50 L 409.00 506.50 L 408.00 507.50 L 405.00 508.50 L 403.00 510.50 L 400.00 511.50 L 398.00 513.50 L 395.00 514.50 L 393.00 516.50 L 390.00 517.50 L 388.00 519.50 L 385.00 520.50 L 383.00 522.50 L 380.00 523.50 L 378.00 525.50 L 375.00 526.50 L 373.00 528.50 L 370.00 529.50 L 368.00 531.50 L 365.00 532.50 L 363.00 534.50 L 362.00 534.50 L 361.00 535.50 L 358.00 536.50 L 356.00 538.50 L 353.00 539.50 L 351.00 541.50 L 348.00 542.50 L 346.00 544.50 L 343.00 545.50 L 341.00 547.50 L 338.00 548.50 L 336.00 550.50 L 333.00 551.50 L 331.00 553.50 L 328.00 554.50 L 326.00 556.50 L 325.00 556.50 L 324.00 557.50 L 321.00 558.50 L 319.00 560.50 L 316.00 561.50 L 314.00 563.50 L 311.00 564.50 L 309.00 566.50 L 306.00 567.50 L 304.00 569.50 L 301.00 570.50 L 299.00 572.50 L 298.00 572.50 L 297.00 573.50 L 294.00 574.50 L 292.00 576.50 L 289.00 577.50 L 287.00 579.50 L 284.00 580.50 L 282.00 582.50 L 279.00 583.50 L 277.00 585.50 L 274.00 586.50 L 272.00 588.50 L 271.00 588.50 L 268.00 590.50 Z M 68.00 263.50 L 66.00 263.50 L 65.50 263.00 L 66.00 262.50 L 68.00 262.50 L 68.50 263.00 L 68.00 263.50 Z M 81.00 269.50 L 79.00 269.50 L 78.50 269.00 L 79.00 268.50 L 81.00 268.50 L 81.50 269.00 L 81.00 269.50 Z M 86.00 271.50 L 84.00 271.50 L 83.50 271.00 L 84.00 270.50 L 86.00 270.50 L 86.50 271.00 L 86.00 271.50 Z M 89.00 417.50 L 87.00 417.50 L 86.00 416.50 L 81.00 416.50 L 80.00 415.50 L 78.00 415.50 L 77.00 414.50 L 75.00 414.50 L 74.00 413.50 L 73.00 413.50 L 71.00 411.50 L 70.00 411.50 L 61.50 403.00 L 61.50 402.00 L 59.50 400.00 L 59.50 399.00 L 58.50 398.00 L 58.50 396.00 L 57.50 395.00 L 57.50 393.00 L 56.50 392.00 L 56.50 387.00 L 55.50 386.00 L 55.50 382.00 L 56.50 381.00 L 56.50 377.00 L 57.50 376.00 L 57.50 373.00 L 58.50 372.00 L 59.50 369.00 L 61.50 367.00 L 61.50 366.00 L 68.00 359.50 L 69.00 359.50 L 71.00 357.50 L 72.00 357.50 L 77.00 354.50 L 79.00 354.50 L 79.50 354.00 L 79.50 283.00 L 80.50 282.00 L 80.50 280.00 L 83.00 277.50 L 84.00 277.50 L 86.00 275.50 L 87.50 275.00 L 87.50 273.00 L 86.50 272.00 L 87.00 271.50 L 90.00 271.50 L 91.00 272.50 L 93.00 272.50 L 96.00 274.50 L 98.00 274.50 L 99.00 275.50 L 101.00 275.50 L 102.00 276.50 L 104.00 276.50 L 105.00 277.50 L 107.00 277.50 L 108.00 278.50 L 110.00 278.50 L 111.00 279.50 L 113.00 279.50 L 114.00 280.50 L 116.00 280.50 L 117.00 281.50 L 119.00 281.50 L 119.50 282.00 L 119.00 282.50 L 114.00 282.50 L 112.00 284.50 L 109.00 285.50 L 107.00 287.50 L 106.00 287.50 L 105.00 288.50 L 102.00 289.50 L 100.50 291.00 L 100.50 355.00 L 103.00 356.50 L 104.00 356.50 L 106.00 358.50 L 107.00 358.50 L 114.50 366.00 L 114.50 367.00 L 116.50 369.00 L 116.50 370.00 L 119.50 375.00 L 119.50 378.00 L 120.50 379.00 L 120.50 391.00 L 119.50 392.00 L 119.50 395.00 L 118.50 396.00 L 118.50 397.00 L 117.50 398.00 L 116.50 401.00 L 114.50 403.00 L 114.50 404.00 L 107.00 411.50 L 106.00 411.50 L 105.00 412.50 L 104.00 412.50 L 99.00 415.50 L 96.00 415.50 L 95.00 416.50 L 90.00 416.50 L 89.00 417.50 Z M 123.00 283.50 L 120.00 283.50 L 119.50 283.00 L 120.00 282.50 L 123.00 282.50 L 123.50 283.00 L 123.00 283.50 Z M 126.00 284.50 L 124.00 284.50 L 123.50 284.00 L 124.00 283.50 L 126.00 283.50 L 126.50 284.00 L 126.00 284.50 Z M 130.00 285.50 L 127.00 285.50 L 126.50 285.00 L 127.00 284.50 L 130.00 284.50 L 130.50 285.00 L 130.00 285.50 Z M 134.00 286.50 L 131.00 286.50 L 130.50 286.00 L 131.00 285.50 L 134.00 285.50 L 134.50 286.00 L 134.00 286.50 Z M 138.00 287.50 L 135.00 287.50 L 134.50 287.00 L 135.00 286.50 L 138.00 286.50 L 138.50 287.00 L 138.00 287.50 Z M 142.00 288.50 L 139.00 288.50 L 138.50 288.00 L 139.00 287.50 L 142.00 287.50 L 142.50 288.00 L 142.00 288.50 Z M 146.00 289.50 L 143.00 289.50 L 142.50 289.00 L 143.00 288.50 L 146.00 288.50 L 146.50 289.00 L 146.00 289.50 Z M 459.00 289.50 L 457.00 289.50 L 456.50 289.00 L 457.00 288.50 L 459.00 288.50 L 459.50 289.00 L 459.00 289.50 Z M 155.00 291.50 L 151.00 291.50 L 150.00 290.50 L 147.00 290.50 L 146.50 290.00 L 147.00 289.50 L 151.00 289.50 L 152.00 290.50 L 155.00 290.50 L 155.50 291.00 L 155.00 291.50 Z M 456.00 290.50 L 454.00 290.50 L 453.50 290.00 L 454.00 289.50 L 456.00 289.50 L 456.50 290.00 L 456.00 290.50 Z M 453.00 291.50 L 450.00 291.50 L 449.50 291.00 L 450.00 290.50 L 453.00 290.50 L 453.50 291.00 L 453.00 291.50 Z M 226.00 302.50 L 218.00 302.50 L 217.50 302.00 L 218.00 301.50 L 226.00 301.50 L 226.50 302.00 L 226.00 302.50 Z M 236.00 303.50 L 227.00 303.50 L 226.50 303.00 L 227.00 302.50 L 236.00 302.50 L 236.50 303.00 L 236.00 303.50 Z M 247.00 304.50 L 237.00 304.50 L 236.50 304.00 L 237.00 303.50 L 247.00 303.50 L 247.50 304.00 L 247.00 304.50 Z M 92.50 396.00 L 95.00 394.50 L 96.00 394.50 L 98.50 392.00 L 98.50 391.00 L 100.50 388.00 L 100.50 382.00 L 99.50 381.00 L 98.50 378.00 L 95.00 374.50 L 94.00 374.50 L 93.00 373.50 L 84.00 373.50 L 83.00 374.50 L 82.00 374.50 L 77.50 379.00 L 77.50 380.00 L 76.50 381.00 L 76.50 388.00 L 77.50 389.00 L 78.50 392.00 L 81.00 394.50 L 82.00 394.50 L 85.00 396.50 L 92.00 396.50 L 92.50 396.00 Z M 378.50 398.00 L 380.00 397.50 L 384.50 393.00 L 384.50 391.00 L 385.50 390.00 L 385.50 384.00 L 384.50 383.00 L 383.50 380.00 L 382.00 378.50 L 381.00 378.50 L 379.00 376.50 L 378.00 376.50 L 377.00 375.50 L 370.00 375.50 L 369.00 376.50 L 366.00 377.50 L 363.50 380.00 L 363.50 381.00 L 362.50 382.00 L 362.50 384.00 L 361.50 385.00 L 361.50 390.00 L 362.50 391.00 L 363.50 394.00 L 366.00 396.50 L 367.00 396.50 L 370.00 398.50 L 378.00 398.50 L 378.50 398.00 Z M 156.00 712.50 L 152.00 712.50 L 148.50 709.00 L 148.50 708.00 L 145.50 703.00 L 145.50 701.00 L 143.50 698.00 L 143.50 696.00 L 142.50 695.00 L 142.50 692.00 L 141.50 691.00 L 141.50 689.00 L 140.50 688.00 L 140.50 685.00 L 139.50 684.00 L 139.50 680.00 L 138.50 679.00 L 138.50 675.00 L 137.50 674.00 L 137.50 668.00 L 136.50 667.00 L 136.50 657.00 L 135.50 656.00 L 135.50 640.00 L 136.50 639.00 L 136.50 631.00 L 137.50 630.00 L 137.50 625.00 L 138.50 624.00 L 138.50 619.00 L 139.50 618.00 L 139.50 615.00 L 140.50 614.00 L 140.50 611.00 L 141.50 610.00 L 141.50 608.00 L 142.50 607.00 L 142.50 605.00 L 143.50 604.00 L 143.50 602.00 L 144.50 601.00 L 144.50 599.00 L 145.50 598.00 L 145.50 595.00 L 147.50 593.00 L 148.50 590.00 L 152.00 586.50 L 158.00 586.50 L 159.00 587.50 L 162.00 587.50 L 163.00 588.50 L 167.00 588.50 L 168.00 589.50 L 171.00 589.50 L 172.00 590.50 L 175.00 590.50 L 176.00 591.50 L 178.00 591.50 L 179.00 592.50 L 181.00 592.50 L 182.00 593.50 L 185.00 593.50 L 186.00 594.50 L 188.00 594.50 L 189.00 595.50 L 191.00 595.50 L 194.00 597.50 L 196.00 597.50 L 197.00 598.50 L 199.00 598.50 L 202.00 600.50 L 204.00 600.50 L 205.00 601.50 L 206.00 601.50 L 211.00 604.50 L 213.00 604.50 L 214.00 605.50 L 217.00 606.50 L 219.00 608.50 L 222.00 609.50 L 224.00 611.50 L 227.00 612.50 L 229.00 614.50 L 230.00 614.50 L 233.00 617.50 L 234.00 617.50 L 239.00 622.50 L 240.00 622.50 L 242.50 625.00 L 242.50 626.00 L 244.50 628.00 L 244.50 630.00 L 243.50 631.00 L 243.50 634.00 L 242.50 635.00 L 242.50 642.00 L 241.50 643.00 L 241.50 659.00 L 242.50 660.00 L 242.50 667.00 L 243.50 668.00 L 243.50 672.00 L 242.50 673.00 L 242.50 674.00 L 240.00 676.50 L 239.00 676.50 L 234.00 681.50 L 233.00 681.50 L 231.00 683.50 L 230.00 683.50 L 225.00 687.50 L 222.00 688.50 L 220.00 690.50 L 219.00 690.50 L 218.00 691.50 L 217.00 691.50 L 216.00 692.50 L 215.00 692.50 L 214.00 693.50 L 213.00 693.50 L 212.00 694.50 L 211.00 694.50 L 206.00 697.50 L 204.00 697.50 L 199.00 700.50 L 197.00 700.50 L 194.00 702.50 L 192.00 702.50 L 191.00 703.50 L 189.00 703.50 L 188.00 704.50 L 186.00 704.50 L 185.00 705.50 L 182.00 705.50 L 181.00 706.50 L 179.00 706.50 L 178.00 707.50 L 175.00 707.50 L 174.00 708.50 L 172.00 708.50 L 171.00 709.50 L 167.00 709.50 L 166.00 710.50 L 162.00 710.50 L 161.00 711.50 L 157.00 711.50 L 156.00 712.50 Z M 375.00 712.50 L 369.00 712.50 L 368.00 711.50 L 364.00 711.50 L 363.00 710.50 L 360.00 710.50 L 359.00 709.50 L 356.00 709.50 L 355.00 708.50 L 352.00 708.50 L 351.00 707.50 L 348.00 707.50 L 347.00 706.50 L 345.00 706.50 L 344.00 705.50 L 342.00 705.50 L 341.00 704.50 L 339.00 704.50 L 338.00 703.50 L 336.00 703.50 L 335.00 702.50 L 333.00 702.50 L 332.00 701.50 L 331.00 701.50 L 330.00 700.50 L 328.00 700.50 L 325.00 698.50 L 323.00 698.50 L 322.00 697.50 L 321.00 697.50 L 320.00 696.50 L 319.00 696.50 L 318.00 695.50 L 317.00 695.50 L 316.00 694.50 L 315.00 694.50 L 314.00 693.50 L 313.00 693.50 L 312.00 692.50 L 309.00 691.50 L 307.00 689.50 L 304.00 688.50 L 302.00 686.50 L 301.00 686.50 L 300.00 685.50 L 299.00 685.50 L 297.00 683.50 L 296.00 683.50 L 293.00 680.50 L 292.00 680.50 L 286.00 674.50 L 285.00 674.50 L 283.50 672.00 L 283.50 671.00 L 284.50 670.00 L 284.50 666.00 L 285.50 665.00 L 285.50 657.00 L 286.50 656.00 L 286.50 645.00 L 285.50 644.00 L 285.50 637.00 L 284.50 636.00 L 284.50 631.00 L 283.50 630.00 L 283.50 628.00 L 285.50 626.00 L 285.50 625.00 L 290.00 620.50 L 291.00 620.50 L 295.00 616.50 L 296.00 616.50 L 299.00 613.50 L 300.00 613.50 L 302.00 611.50 L 303.00 611.50 L 304.00 610.50 L 305.00 610.50 L 307.00 608.50 L 308.00 608.50 L 309.00 607.50 L 310.00 607.50 L 311.00 606.50 L 314.00 605.50 L 316.00 603.50 L 318.00 603.50 L 319.00 602.50 L 320.00 602.50 L 325.00 599.50 L 327.00 599.50 L 330.00 597.50 L 332.00 597.50 L 333.00 596.50 L 335.00 596.50 L 336.00 595.50 L 338.00 595.50 L 339.00 594.50 L 341.00 594.50 L 342.00 593.50 L 344.00 593.50 L 345.00 592.50 L 348.00 592.50 L 349.00 591.50 L 352.00 591.50 L 353.00 590.50 L 356.00 590.50 L 357.00 589.50 L 360.00 589.50 L 361.00 588.50 L 364.00 588.50 L 365.00 587.50 L 370.00 587.50 L 371.00 586.50 L 375.00 586.50 L 379.50 591.00 L 379.50 592.00 L 380.50 593.00 L 380.50 595.00 L 382.50 598.00 L 382.50 600.00 L 384.50 603.00 L 384.50 606.00 L 385.50 607.00 L 385.50 609.00 L 386.50 610.00 L 386.50 613.00 L 387.50 614.00 L 387.50 617.00 L 388.50 618.00 L 388.50 622.00 L 389.50 623.00 L 389.50 628.00 L 390.50 629.00 L 390.50 640.00 L 391.50 641.00 L 391.50 655.00 L 390.50 656.00 L 390.50 666.00 L 389.50 667.00 L 389.50 672.00 L 388.50 673.00 L 388.50 678.00 L 387.50 679.00 L 387.50 683.00 L 386.50 684.00 L 386.50 687.00 L 385.50 688.00 L 385.50 691.00 L 384.50 692.00 L 384.50 694.00 L 383.50 695.00 L 383.50 697.00 L 382.50 698.00 L 382.50 700.00 L 381.50 701.00 L 381.50 703.00 L 380.50 704.00 L 380.50 705.00 L 379.50 706.00 L 378.50 709.00 L 375.00 712.50 Z M 273.00 672.50 L 256.00 672.50 L 255.00 671.50 L 250.00 671.50 L 247.50 670.00 L 247.50 665.00 L 246.50 664.00 L 246.50 639.00 L 247.50 638.00 L 247.50 633.00 L 248.50 632.00 L 248.50 630.00 L 249.00 629.50 L 250.00 629.50 L 251.00 628.50 L 257.00 628.50 L 258.00 627.50 L 272.00 627.50 L 273.00 628.50 L 277.00 628.50 L 279.50 630.00 L 279.50 632.00 L 280.50 633.00 L 280.50 638.00 L 281.50 639.00 L 281.50 661.00 L 280.50 662.00 L 280.50 667.00 L 279.50 668.00 L 279.50 670.00 L 277.00 671.50 L 274.00 671.50 L 273.00 672.50 Z"/><path fill="#e8332a" fill-rule="evenodd" d="M 272.00 672.50 L 256.00 672.50 L 255.00 671.50 L 251.00 671.50 L 250.00 670.50 L 248.00 670.50 L 247.50 670.00 L 247.50 665.00 L 246.50 664.00 L 246.50 639.00 L 247.50 638.00 L 247.50 633.00 L 248.50 632.00 L 248.50 630.00 L 249.00 629.50 L 250.00 629.50 L 251.00 628.50 L 257.00 628.50 L 258.00 627.50 L 272.00 627.50 L 273.00 628.50 L 277.00 628.50 L 279.50 630.00 L 279.50 633.00 L 280.50 634.00 L 280.50 639.00 L 281.50 640.00 L 281.50 661.00 L 280.50 662.00 L 280.50 667.00 L 279.50 668.00 L 279.50 670.00 L 279.00 670.50 L 278.00 670.50 L 277.00 671.50 L 273.00 671.50 L 272.00 672.50 Z"/></svg>