<svg xmlns="http://www.w3.org/2000/svg" viewBox="0 0 527 722"><path fill="#fff" fill-rule="evenodd" d="M 263.0 520.5 L 258.0 520.5 L 252.0 517.5 L 210.0 492.5 L 147.0 457.5 L 140.5 451.0 L 140.5 322.0 L 141.5 320.0 L 144.0 317.5 L 164.5 306.0 L 163.5 303.0 L 158.5 297.0 L 160.0 295.5 L 247.0 228.5 L 254.0 221.5 L 258.0 219.5 L 264.0 219.5 L 271.0 223.5 L 363.0 294.5 L 364.5 296.0 L 358.0 305.5 L 380.0 305.5 L 384.5 310.0 L 385.5 313.0 L 385.5 357.0 L 393.0 361.5 L 400.5 369.0 L 405.5 381.0 L 405.5 392.0 L 401.5 403.0 L 392.0 413.5 L 387.0 416.5 L 372.0 419.5 L 361.0 416.5 L 353.0 411.5 L 347.5 406.0 L 342.5 397.0 L 341.5 382.0 L 342.5 377.0 L 349.5 365.0 L 358.0 358.5 L 364.5 356.0 L 365.5 322.0 L 363.0 319.5 L 352.0 314.5 L 342.0 307.5 L 339.0 308.5 L 325.0 308.5 L 324.0 307.5 L 323.0 308.5 L 308.0 308.5 L 307.0 307.5 L 260.0 306.5 L 260.0 305.5 L 336.5 305.0 L 261.0 246.5 L 189.0 302.5 L 187.0 305.5 L 205.5 306.0 L 161.5 332.0 L 161.5 441.0 L 163.0 442.5 L 260.0 497.5 L 346.0 447.5 L 352.0 448.5 L 357.5 456.0 L 357.5 461.0 L 354.0 466.5 L 263.0 520.5 Z M 89.0 417.5 L 81.0 416.5 L 73.0 413.5 L 61.5 403.0 L 56.5 392.0 L 55.5 382.0 L 57.5 373.0 L 61.5 366.0 L 68.0 359.5 L 79.5 354.0 L 79.5 306.0 L 100.0 305.5 L 100.5 355.0 L 107.0 358.5 L 116.5 369.0 L 120.5 379.0 L 120.5 391.0 L 116.5 401.0 L 107.0 411.5 L 99.0 415.5 L 89.0 417.5 Z M 268.0 590.5 L 263.0 590.5 L 241.0 579.5 L 239.0 577.5 L 95.0 503.5 L 90.0 500.5 L 86.5 495.0 L 87.5 485.0 L 92.0 481.5 L 100.0 482.5 L 180.0 523.5 L 182.0 525.5 L 241.0 555.5 L 264.0 568.5 L 425.5 472.0 L 426.5 306.0 L 447.0 305.5 L 447.5 394.0 L 446.5 395.0 L 446.5 482.0 L 445.5 484.0 L 440.0 488.5 L 268.0 590.5 Z M 92.5 396.0 L 98.5 392.0 L 100.5 388.0 L 100.5 382.0 L 95.0 374.5 L 93.0 373.5 L 84.0 373.5 L 77.5 379.0 L 76.5 388.0 L 81.0 394.5 L 85.0 396.5 L 92.5 396.0 Z M 378.5 398.0 L 384.5 393.0 L 385.5 384.0 L 383.5 380.0 L 379.0 376.5 L 370.0 375.5 L 363.5 380.0 L 361.5 385.0 L 361.5 390.0 L 363.5 394.0 L 370.0 398.5 L 378.5 398.0 Z M 156.0 712.5 L 152.0 712.5 L 148.5 709.0 L 143.5 698.0 L 137.5 674.0 L 136.5 657.0 L 135.5 656.0 L 135.5 640.0 L 136.5 639.0 L 138.5 619.0 L 145.5 598.0 L 145.5 595.0 L 152.0 586.5 L 158.0 586.5 L 163.0 588.5 L 175.0 590.5 L 191.0 595.5 L 213.0 604.5 L 230.0 614.5 L 240.0 622.5 L 244.5 628.0 L 241.5 643.0 L 241.5 659.0 L 242.5 660.0 L 243.5 672.0 L 240.0 676.5 L 225.0 687.5 L 206.0 697.5 L 185.0 705.5 L 156.0 712.5 Z M 375.0 712.5 L 369.0 712.5 L 348.0 707.5 L 323.0 698.5 L 296.0 683.5 L 285.0 674.5 L 283.5 672.0 L 286.5 656.0 L 286.5 645.0 L 285.5 644.0 L 285.5 637.0 L 283.5 628.0 L 290.0 620.5 L 302.0 611.5 L 325.0 599.5 L 345.0 592.5 L 371.0 586.5 L 375.0 586.5 L 379.5 591.0 L 384.5 603.0 L 389.5 623.0 L 390.5 640.0 L 391.5 641.0 L 390.5 666.0 L 389.5 667.0 L 387.5 683.0 L 381.5 703.0 L 378.5 709.0 L 375.0 712.5 Z"/><path fill="#e8332a" fill-rule="evenodd" d="M 272.0 672.5 L 256.0 672.5 L 247.5 670.0 L 247.5 665.0 L 246.5 664.0 L 246.5 639.0 L 249.0 629.5 L 258.0 627.5 L 272.0 627.5 L 279.5 630.0 L 281.5 640.0 L 280.5 667.0 L 279.0 670.5 L 272.0 672.5 Z"/></svg>