<svg xmlns="http://www.w3.org/2000/svg" viewBox="0 0 527 722"><path fill="#fff" fill-rule="evenodd" d="M 263.0 520.5 L 258.0 520.5 L 252.0 517.5 L 210.0 492.5 L 147.0 457.5 L 140.5 451.0 L 140.5 322.0 L 141.5 320.0 L 144.0 317.5 L 164.5 306.0 L 163.5 303.0 L 158.5 297.0 L 162.5 294.0 L 160.0 293.5 L 160.0 292.5 L 166.0 291.5 L 247.0 228.5 L 254.0 221.5 L 258.0 219.5 L 264.0 219.5 L 271.0 223.5 L 363.0 294.5 L 364.5 296.0 L 359.0 304.5 L 382.5 305.0 L 380.5 306.0 L 384.5 310.0 L 385.5 313.0 L 385.5 357.0 L 393.0 361.5 L 400.5 369.0 L 405.5 381.0 L 405.5 392.0 L 401.5 403.0 L 392.0 413.5 L 387.0 416.5 L 372.0 419.5 L 361.0 416.5 L 353.0 411.5 L 347.5 406.0 L 342.5 397.0 L 341.5 382.0 L 342.5 377.0 L 349.5 365.0 L 358.0 358.5 L 364.5 356.0 L 365.5 322.0 L 363.0 319.5 L 352.0 314.5 L 342.0 307.5 L 339.0 308.5 L 325.0 308.5 L 324.0 307.5 L 323.0 308.5 L 308.0 308.5 L 307.0 307.5 L 279.0 307.5 L 278.0 306.5 L 248.0 305.5 L 248.0 304.5 L 335.5 304.0 L 261.0 246.5 L 189.0 302.5 L 188.0 304.5 L 207.5 305.0 L 161.5 332.0 L 161.5 441.0 L 163.0 442.5 L 260.0 497.5 L 346.0 447.5 L 352.0 448.5 L 357.5 456.0 L 357.5 461.0 L 354.0 466.5 L 263.0 520.5 Z M 68.0 263.5 L 65.5 263.0 L 68.0 262.5 L 68.0 263.5 Z M 81.0 269.5 L 78.5 269.0 L 81.0 268.5 L 81.0 269.5 Z M 86.0 271.5 L 83.5 271.0 L 86.0 270.5 L 86.0 271.5 Z M 89.0 417.5 L 81.0 416.5 L 70.0 411.5 L 59.5 400.0 L 55.5 386.0 L 57.5 373.0 L 61.5 366.0 L 68.0 359.5 L 79.5 354.0 L 79.5 283.0 L 83.0 277.5 L 89.5 274.0 L 87.0 271.5 L 90.0 271.5 L 96.0 274.5 L 110.0 278.5 L 110.0 279.5 L 107.5 280.0 L 111.0 281.5 L 116.5 281.0 L 100.5 291.0 L 100.5 355.0 L 107.0 358.5 L 114.5 366.0 L 120.5 379.0 L 120.5 391.0 L 114.5 404.0 L 107.0 411.5 L 99.0 415.5 L 89.0 417.5 Z M 113.0 280.5 L 110.5 280.0 L 113.0 279.5 L 113.0 280.5 Z M 119.0 282.5 L 116.5 282.0 L 119.0 281.5 L 119.0 282.5 Z M 123.0 283.5 L 119.5 283.0 L 123.0 282.5 L 123.0 283.5 Z M 475.0 283.5 L 472.5 283.0 L 475.0 282.5 L 475.0 283.5 Z M 126.0 284.5 L 123.5 284.0 L 126.0 283.5 L 126.0 284.5 Z M 130.0 285.5 L 126.5 285.0 L 130.0 284.5 L 130.0 285.5 Z M 470.0 285.5 L 467.5 285.0 L 470.0 284.5 L 470.0 285.5 Z M 134.0 286.5 L 130.5 286.0 L 134.0 285.5 L 134.0 286.5 Z M 138.0 287.5 L 134.5 287.0 L 138.0 286.5 L 138.0 287.5 Z M 465.0 287.5 L 462.5 287.0 L 465.0 286.5 L 465.0 287.5 Z M 142.0 288.5 L 138.5 288.0 L 142.0 287.5 L 142.0 288.5 Z M 462.0 288.5 L 459.5 288.0 L 462.0 287.5 L 462.0 288.5 Z M 146.0 289.5 L 142.5 289.0 L 146.0 288.5 L 146.0 289.5 Z M 459.0 289.5 L 456.5 289.0 L 459.0 288.5 L 459.0 289.5 Z M 150.0 290.5 L 146.5 290.0 L 150.0 289.5 L 150.0 290.5 Z M 456.0 290.5 L 453.5 290.0 L 456.0 289.5 L 456.0 290.5 Z M 155.0 291.5 L 150.5 291.0 L 155.0 290.5 L 155.0 291.5 Z M 453.0 291.5 L 449.5 291.0 L 453.0 290.5 L 453.0 291.5 Z M 159.0 292.5 L 155.5 292.0 L 159.0 291.5 L 159.0 292.5 Z M 268.0 590.5 L 263.0 590.5 L 241.0 579.5 L 239.0 577.5 L 95.0 503.5 L 90.0 500.5 L 86.5 495.0 L 87.5 485.0 L 92.0 481.5 L 100.0 482.5 L 241.0 555.5 L 258.0 565.5 L 264.0 568.5 L 268.0 566.5 L 425.5 472.0 L 426.5 299.0 L 427.5 298.0 L 425.5 297.0 L 445.0 291.5 L 449.0 291.5 L 449.0 292.5 L 446.5 293.0 L 447.5 294.0 L 447.5 394.0 L 446.5 395.0 L 446.5 482.0 L 445.5 484.0 L 440.0 488.5 L 268.0 590.5 Z M 425.0 298.5 L 421.5 298.0 L 425.0 297.5 L 425.0 298.5 Z M 421.0 299.5 L 415.5 299.0 L 421.0 298.5 L 421.0 299.5 Z M 415.0 300.5 L 410.5 300.0 L 415.0 299.5 L 415.0 300.5 Z M 217.0 301.5 L 212.5 301.0 L 217.0 300.5 L 217.0 301.5 Z M 410.0 301.5 L 404.5 301.0 L 410.0 300.5 L 410.0 301.5 Z M 226.0 302.5 L 217.5 302.0 L 226.0 301.5 L 226.0 302.5 Z M 404.0 302.5 L 397.5 302.0 L 404.0 301.5 L 404.0 302.5 Z M 236.0 303.5 L 226.5 303.0 L 236.0 302.5 L 236.0 303.5 Z M 397.0 303.5 L 390.5 303.0 L 397.0 302.5 L 397.0 303.5 Z M 247.0 304.5 L 236.5 304.0 L 247.0 303.5 L 247.0 304.5 Z M 390.0 304.5 L 382.5 304.0 L 390.0 303.5 L 390.0 304.5 Z M 92.5 396.0 L 98.5 392.0 L 100.5 388.0 L 100.5 382.0 L 95.0 374.5 L 93.0 373.5 L 84.0 373.5 L 77.5 379.0 L 76.5 388.0 L 81.0 394.5 L 85.0 396.5 L 92.5 396.0 Z M 378.5 398.0 L 384.5 393.0 L 385.5 384.0 L 383.5 380.0 L 379.0 376.5 L 370.0 375.5 L 363.5 380.0 L 361.5 385.0 L 361.5 390.0 L 363.5 394.0 L 370.0 398.5 L 378.5 398.0 Z M 156.0 712.5 L 152.0 712.5 L 148.5 709.0 L 143.5 698.0 L 137.5 674.0 L 136.5 657.0 L 135.5 656.0 L 135.5 640.0 L 136.5 639.0 L 138.5 619.0 L 145.5 598.0 L 145.5 595.0 L 152.0 586.5 L 158.0 586.5 L 163.0 588.5 L 175.0 590.5 L 191.0 595.5 L 213.0 604.5 L 230.0 614.5 L 240.0 622.5 L 244.5 628.0 L 241.5 643.0 L 241.5 659.0 L 242.5 660.0 L 243.5 672.0 L 240.0 676.5 L 225.0 687.5 L 206.0 697.5 L 185.0 705.5 L 156.0 712.5 Z M 375.0 712.5 L 369.0 712.5 L 348.0 707.5 L 323.0 698.5 L 296.0 683.5 L 285.0 674.5 L 283.5 672.0 L 286.5 656.0 L 286.5 645.0 L 285.5 644.0 L 285.5 637.0 L 283.5 628.0 L 290.0 620.5 L 302.0 611.5 L 325.0 599.5 L 345.0 592.5 L 371.0 586.5 L 375.0 586.5 L 379.5 591.0 L 384.5 603.0 L 389.5 623.0 L 390.5 640.0 L 391.5 641.0 L 390.5 666.0 L 389.5 667.0 L 387.5 683.0 L 381.5 703.0 L 378.5 709.0 L 375.0 712.5 Z M 273.0 672.5 L 256.0 672.5 L 247.5 670.0 L 247.5 665.0 L 246.5 664.0 L 246.5 639.0 L 249.0 629.5 L 258.0 627.5 L 272.0 627.5 L 279.5 630.0 L 281.5 639.0 L 281.5 661.0 L 279.5 670.0 L 273.0 672.5 Z"/><path fill="#e8332a" fill-rule="evenodd" d="M 272.0 672.5 L 256.0 672.5 L 247.5 670.0 L 247.5 665.0 L 246.5 664.0 L 246.5 639.0 L 249.0 629.5 L 258.0 627.5 L 272.0 627.5 L 279.5 630.0 L 281.5 640.0 L 280.5 667.0 L 279.0 670.5 L 272.0 672.5 Z"/></svg>