<svg xmlns="http://www.w3.org/2000/svg" viewBox="0 0 527 722"><path fill="#fff" fill-rule="evenodd" d="M 382.00 304.50 L 248.00 304.50 L 247.00 303.50 L 237.00 303.50 L 236.00 302.50 L 227.00 302.50 L 226.00 301.50 L 218.00 301.50 L 217.00 300.50 L 213.00 300.50 L 211.00 302.50 L 210.00 302.50 L 207.00 304.50 L 188.00 304.50 L 187.50 304.00 L 187.50 297.00 L 187.00 296.50 L 185.00 296.50 L 184.00 295.50 L 176.00 295.50 L 175.00 294.50 L 171.00 294.50 L 170.00 293.50 L 166.00 293.50 L 165.00 292.50 L 160.00 292.50 L 159.00 291.50 L 156.00 291.50 L 155.00 290.50 L 151.00 290.50 L 150.00 289.50 L 147.00 289.50 L 146.00 288.50 L 143.00 288.50 L 142.00 287.50 L 139.00 287.50 L 138.00 286.50 L 135.00 286.50 L 134.00 285.50 L 131.00 285.50 L 130.00 284.50 L 127.00 284.50 L 126.00 283.50 L 124.00 283.50 L 123.00 282.50 L 120.00 282.50 L 119.00 281.50 L 117.00 281.50 L 116.00 280.50 L 114.00 280.50 L 113.00 279.50 L 111.00 279.50 L 110.00 278.50 L 108.00 278.50 L 107.00 277.50 L 105.00 277.50 L 104.00 276.50 L 102.00 276.50 L 101.00 275.50 L 99.00 275.50 L 98.00 274.50 L 96.00 274.50 L 93.00 272.50 L 91.00 272.50 L 90.00 271.50 L 87.00 271.50 L 86.00 270.50 L 84.00 270.50 L 81.00 268.50 L 79.00 268.50 L 78.00 267.50 L 77.00 267.50 L 76.00 266.50 L 75.00 266.50 L 74.00 265.50 L 73.00 265.50 L 68.00 262.50 L 66.00 262.50 L 65.00 261.50 L 64.00 261.50 L 63.00 260.50 L 62.00 260.50 L 61.00 259.50 L 60.00 259.50 L 59.00 258.50 L 56.00 257.50 L 54.00 255.50 L 53.00 255.50 L 52.00 254.50 L 49.00 253.50 L 47.00 251.50 L 46.00 251.50 L 44.00 249.50 L 41.00 248.50 L 38.00 245.50 L 37.00 245.50 L 35.00 243.50 L 34.00 243.50 L 30.00 239.50 L 29.00 239.50 L 18.50 229.00 L 18.50 228.00 L 15.50 225.00 L 15.50 224.00 L 13.50 222.00 L 13.50 221.00 L 12.50 220.00 L 12.50 219.00 L 9.50 214.00 L 9.50 212.00 L 8.50 211.00 L 8.50 196.00 L 10.50 193.00 L 10.50 191.00 L 11.50 190.00 L 11.50 189.00 L 13.50 187.00 L 13.50 186.00 L 17.50 182.00 L 17.50 181.00 L 20.00 178.50 L 21.00 178.50 L 26.00 173.50 L 27.00 173.50 L 30.00 170.50 L 33.00 169.50 L 35.00 167.50 L 36.00 167.50 L 37.00 166.50 L 38.00 166.50 L 39.00 165.50 L 40.00 165.50 L 41.00 164.50 L 42.00 164.50 L 43.00 163.50 L 44.00 163.50 L 45.00 162.50 L 46.00 162.50 L 51.00 159.50 L 53.00 159.50 L 54.00 158.50 L 55.00 158.50 L 56.00 157.50 L 58.00 157.50 L 61.00 155.50 L 63.00 155.50 L 64.00 154.50 L 66.00 154.50 L 67.00 153.50 L 69.00 153.50 L 70.00 152.50 L 72.00 152.50 L 73.00 151.50 L 75.00 151.50 L 76.00 150.50 L 79.00 150.50 L 80.00 149.50 L 82.00 149.50 L 83.00 148.50 L 86.00 148.50 L 87.00 147.50 L 90.00 147.50 L 91.00 146.50 L 94.00 146.50 L 95.00 145.50 L 99.00 145.50 L 100.00 144.50 L 103.00 144.50 L 104.00 143.50 L 108.00 143.50 L 109.00 142.50 L 114.00 142.50 L 115.00 141.50 L 120.00 141.50 L 121.00 140.50 L 126.00 140.50 L 127.00 139.50 L 131.00 139.50 L 132.50 138.00 L 132.50 136.00 L 133.50 135.00 L 133.50 132.00 L 134.50 131.00 L 134.50 129.00 L 135.50 128.00 L 135.50 125.00 L 136.50 124.00 L 136.50 122.00 L 137.50 121.00 L 137.50 118.00 L 138.50 117.00 L 138.50 114.00 L 139.50 113.00 L 139.50 111.00 L 140.50 110.00 L 140.50 107.00 L 141.50 106.00 L 141.50 103.00 L 142.50 102.00 L 142.50 100.00 L 143.50 99.00 L 143.50 96.00 L 144.50 95.00 L 144.50 92.00 L 145.50 91.00 L 145.50 88.00 L 146.50 87.00 L 146.50 85.00 L 147.50 84.00 L 147.50 81.00 L 148.50 80.00 L 148.50 78.00 L 149.50 77.00 L 149.50 74.00 L 150.50 73.00 L 150.50 70.00 L 151.50 69.00 L 151.50 66.00 L 152.50 65.00 L 152.50 63.00 L 153.50 62.00 L 153.50 59.00 L 154.50 58.00 L 154.50 55.00 L 155.50 54.00 L 155.50 51.00 L 156.50 50.00 L 156.50 48.00 L 157.50 47.00 L 157.50 44.00 L 158.50 43.00 L 158.50 41.00 L 159.50 40.00 L 159.50 38.00 L 161.50 35.00 L 161.50 33.00 L 162.50 32.00 L 162.50 31.00 L 164.50 29.00 L 164.50 28.00 L 166.50 26.00 L 166.50 25.00 L 176.00 15.50 L 179.00 14.50 L 181.00 12.50 L 182.00 12.50 L 183.00 11.50 L 185.00 11.50 L 186.00 10.50 L 188.00 10.50 L 189.00 9.50 L 191.00 9.50 L 192.00 8.50 L 201.00 8.50 L 202.00 7.50 L 203.00 8.50 L 211.00 8.50 L 212.00 9.50 L 214.00 9.50 L 215.00 10.50 L 217.00 10.50 L 218.00 11.50 L 220.00 11.50 L 221.00 12.50 L 223.00 12.50 L 224.00 13.50 L 226.00 13.50 L 229.00 15.50 L 231.00 15.50 L 232.00 16.50 L 234.00 16.50 L 235.00 17.50 L 238.00 17.50 L 239.00 18.50 L 241.00 18.50 L 242.00 19.50 L 245.00 19.50 L 246.00 20.50 L 249.00 20.50 L 250.00 21.50 L 253.00 21.50 L 254.00 22.50 L 257.00 22.50 L 258.00 23.50 L 262.00 23.50 L 263.00 24.50 L 268.00 24.50 L 269.00 25.50 L 276.00 25.50 L 277.00 26.50 L 302.00 26.50 L 303.00 25.50 L 311.00 25.50 L 312.00 24.50 L 318.00 24.50 L 319.00 23.50 L 324.00 23.50 L 325.00 22.50 L 329.00 22.50 L 330.00 21.50 L 334.00 21.50 L 335.00 20.50 L 339.00 20.50 L 340.00 19.50 L 347.00 19.50 L 348.00 18.50 L 350.00 18.50 L 351.00 19.50 L 357.00 19.50 L 358.00 20.50 L 361.00 20.50 L 362.00 21.50 L 364.00 21.50 L 365.00 22.50 L 367.00 22.50 L 368.00 23.50 L 369.00 23.50 L 370.00 24.50 L 373.00 25.50 L 375.00 27.50 L 376.00 27.50 L 385.50 37.00 L 386.50 40.00 L 388.50 42.00 L 388.50 43.00 L 390.50 46.00 L 390.50 48.00 L 391.50 49.00 L 391.50 51.00 L 392.50 52.00 L 392.50 55.00 L 393.50 56.00 L 393.50 61.00 L 394.50 62.00 L 394.50 69.00 L 395.50 70.00 L 395.50 77.00 L 396.50 78.00 L 396.50 86.00 L 397.50 87.00 L 397.50 94.00 L 398.50 95.00 L 398.50 103.00 L 399.50 104.00 L 399.50 111.00 L 400.50 112.00 L 400.50 119.00 L 401.50 120.00 L 401.50 129.00 L 402.50 130.00 L 402.50 137.00 L 403.50 138.00 L 403.50 146.00 L 404.50 147.00 L 404.50 154.00 L 405.50 155.00 L 405.50 158.00 L 406.00 158.50 L 408.00 158.50 L 409.00 159.50 L 411.00 159.50 L 412.00 160.50 L 414.00 160.50 L 415.00 161.50 L 417.00 161.50 L 418.00 162.50 L 420.00 162.50 L 421.00 163.50 L 423.00 163.50 L 424.00 164.50 L 426.00 164.50 L 429.00 166.50 L 431.00 166.50 L 432.00 167.50 L 434.00 167.50 L 435.00 168.50 L 436.00 168.50 L 437.00 169.50 L 439.00 169.50 L 444.00 172.50 L 446.00 172.50 L 447.00 173.50 L 448.00 173.50 L 453.00 176.50 L 455.00 176.50 L 456.00 177.50 L 457.00 177.50 L 458.00 178.50 L 461.00 179.50 L 463.00 181.50 L 464.00 181.50 L 465.00 182.50 L 466.00 182.50 L 467.00 183.50 L 468.00 183.50 L 469.00 184.50 L 472.00 185.50 L 474.00 187.50 L 477.00 188.50 L 479.00 190.50 L 482.00 191.50 L 484.00 193.50 L 485.00 193.50 L 487.00 195.50 L 488.00 195.50 L 491.00 198.50 L 492.00 198.50 L 497.00 203.50 L 498.00 203.50 L 507.50 213.00 L 507.50 214.00 L 511.50 218.00 L 512.50 221.00 L 514.50 223.00 L 514.50 224.00 L 516.50 227.00 L 516.50 229.00 L 517.50 230.00 L 517.50 234.00 L 518.50 235.00 L 518.50 241.00 L 517.50 242.00 L 517.50 246.00 L 516.50 247.00 L 516.50 249.00 L 515.50 250.00 L 514.50 253.00 L 512.50 255.00 L 512.50 256.00 L 509.50 259.00 L 509.50 260.00 L 506.00 263.50 L 505.00 263.50 L 500.00 268.50 L 499.00 268.50 L 497.00 270.50 L 496.00 270.50 L 491.00 274.50 L 490.00 274.50 L 489.00 275.50 L 488.00 275.50 L 487.00 276.50 L 486.00 276.50 L 485.00 277.50 L 484.00 277.50 L 483.00 278.50 L 482.00 278.50 L 481.00 279.50 L 480.00 279.50 L 475.00 282.50 L 473.00 282.50 L 470.00 284.50 L 468.00 284.50 L 465.00 286.50 L 463.00 286.50 L 462.00 287.50 L 460.00 287.50 L 459.00 288.50 L 457.00 288.50 L 456.00 289.50 L 454.00 289.50 L 453.00 290.50 L 450.00 290.50 L 449.00 291.50 L 445.00 291.50 L 444.00 292.50 L 441.00 292.50 L 440.00 293.50 L 437.00 293.50 L 436.00 294.50 L 433.00 294.50 L 432.00 295.50 L 428.00 295.50 L 425.00 297.50 L 422.00 297.50 L 421.00 298.50 L 416.00 298.50 L 415.00 299.50 L 411.00 299.50 L 410.00 300.50 L 405.00 300.50 L 404.00 301.50 L 398.00 301.50 L 397.00 302.50 L 391.00 302.50 L 390.00 303.50 L 383.00 303.50 L 382.00 304.50 Z"/><path fill="#e8332a" fill-rule="evenodd" d="M 321.00 245.50 L 276.00 245.50 L 275.00 244.50 L 262.00 244.50 L 261.00 243.50 L 251.00 243.50 L 250.00 242.50 L 241.00 242.50 L 240.00 241.50 L 234.00 241.50 L 233.00 240.50 L 227.00 240.50 L 226.00 239.50 L 221.00 239.50 L 220.00 238.50 L 216.00 238.50 L 215.00 237.50 L 211.00 237.50 L 210.00 236.50 L 206.00 236.50 L 205.00 235.50 L 201.00 235.50 L 200.00 234.50 L 197.00 234.50 L 196.00 233.50 L 193.00 233.50 L 192.00 232.50 L 190.00 232.50 L 189.00 231.50 L 186.00 231.50 L 185.00 230.50 L 183.00 230.50 L 182.00 229.50 L 180.00 229.50 L 179.00 228.50 L 177.00 228.50 L 176.00 227.50 L 174.00 227.50 L 173.00 226.50 L 171.00 226.50 L 170.00 225.50 L 168.00 225.50 L 165.00 223.50 L 163.00 223.50 L 162.00 222.50 L 161.00 222.50 L 160.00 221.50 L 159.00 221.50 L 158.00 220.50 L 157.00 220.50 L 156.00 219.50 L 155.00 219.50 L 154.00 218.50 L 151.00 217.50 L 149.00 215.50 L 148.00 215.50 L 146.00 213.50 L 145.00 213.50 L 135.50 204.00 L 135.50 203.00 L 131.50 198.00 L 131.50 197.00 L 130.50 196.00 L 130.50 195.00 L 127.50 190.00 L 127.50 187.00 L 126.50 186.00 L 126.50 184.00 L 125.50 183.00 L 125.50 173.00 L 126.00 172.50 L 126.50 173.00 L 126.50 175.00 L 127.50 176.00 L 128.50 179.00 L 130.50 181.00 L 130.50 182.00 L 139.00 190.50 L 140.00 190.50 L 143.00 193.50 L 144.00 193.50 L 146.00 195.50 L 147.00 195.50 L 148.00 196.50 L 149.00 196.50 L 150.00 197.50 L 151.00 197.50 L 152.00 198.50 L 153.00 198.50 L 154.00 199.50 L 155.00 199.50 L 160.00 202.50 L 162.00 202.50 L 165.00 204.50 L 167.00 204.50 L 168.00 205.50 L 170.00 205.50 L 173.00 207.50 L 176.00 207.50 L 177.00 208.50 L 179.00 208.50 L 180.00 209.50 L 183.00 209.50 L 184.00 210.50 L 187.00 210.50 L 188.00 211.50 L 191.00 211.50 L 192.00 212.50 L 195.00 212.50 L 196.00 213.50 L 199.00 213.50 L 200.00 214.50 L 204.00 214.50 L 205.00 215.50 L 209.00 215.50 L 210.00 216.50 L 215.00 216.50 L 216.00 217.50 L 220.00 217.50 L 221.00 218.50 L 227.00 218.50 L 228.00 219.50 L 234.00 219.50 L 235.00 220.50 L 242.00 220.50 L 243.00 221.50 L 251.00 221.50 L 252.00 222.50 L 262.00 222.50 L 263.00 223.50 L 278.00 223.50 L 279.00 224.50 L 320.00 224.50 L 321.00 223.50 L 333.00 223.50 L 334.00 222.50 L 342.00 222.50 L 343.00 221.50 L 349.00 221.50 L 350.00 220.50 L 355.00 220.50 L 356.00 219.50 L 360.00 219.50 L 361.00 218.50 L 364.00 218.50 L 365.00 217.50 L 368.00 217.50 L 369.00 216.50 L 372.00 216.50 L 373.00 215.50 L 375.00 215.50 L 376.00 214.50 L 378.00 214.50 L 379.00 213.50 L 380.00 213.50 L 381.00 212.50 L 382.00 212.50 L 383.00 211.50 L 384.00 211.50 L 385.00 210.50 L 386.00 210.50 L 387.00 209.50 L 388.00 209.50 L 389.00 208.50 L 392.00 207.50 L 395.00 204.50 L 396.00 204.50 L 401.50 199.00 L 401.50 198.00 L 404.50 195.00 L 404.50 194.00 L 405.50 193.00 L 405.50 192.00 L 407.00 189.50 L 407.50 190.00 L 407.50 196.00 L 406.50 197.00 L 406.50 201.00 L 405.50 202.00 L 405.50 204.00 L 404.50 205.00 L 404.50 207.00 L 403.50 208.00 L 403.50 210.00 L 402.50 211.00 L 401.50 214.00 L 398.50 217.00 L 398.50 218.00 L 392.00 224.50 L 391.00 224.50 L 388.00 227.50 L 387.00 227.50 L 382.00 231.50 L 381.00 231.50 L 378.00 233.50 L 376.00 233.50 L 373.00 235.50 L 371.00 235.50 L 370.00 236.50 L 368.00 236.50 L 367.00 237.50 L 364.00 237.50 L 363.00 238.50 L 361.00 238.50 L 360.00 239.50 L 357.00 239.50 L 356.00 240.50 L 352.00 240.50 L 351.00 241.50 L 347.00 241.50 L 346.00 242.50 L 341.00 242.50 L 340.00 243.50 L 333.00 243.50 L 332.00 244.50 L 322.00 244.50 L 321.00 245.50 Z"/></svg>