<svg xmlns="http://www.w3.org/2000/svg" viewBox="0 0 527 722"><path fill="#fff" fill-rule="evenodd" d="M 382.0 304.5 L 248.0 304.5 L 247.0 303.5 L 237.0 303.5 L 236.0 302.5 L 227.0 302.5 L 217.0 300.5 L 213.0 300.5 L 207.0 304.5 L 188.0 304.5 L 187.0 296.5 L 160.0 292.5 L 120.0 282.5 L 79.0 268.5 L 49.0 253.5 L 29.0 239.5 L 15.5 225.0 L 8.5 211.0 L 8.5 196.0 L 11.5 189.0 L 20.0 178.5 L 30.0 170.5 L 51.0 159.5 L 83.0 148.5 L 109.0 142.5 L 131.0 139.5 L 132.5 138.0 L 159.5 38.0 L 166.5 25.0 L 176.0 15.5 L 183.0 11.5 L 192.0 8.5 L 201.0 8.5 L 202.0 7.5 L 203.0 8.5 L 211.0 8.5 L 242.0 19.5 L 277.0 26.5 L 311.0 25.5 L 348.0 18.5 L 361.0 20.5 L 376.0 27.5 L 385.5 37.0 L 392.5 52.0 L 394.5 62.0 L 394.5 69.0 L 395.5 70.0 L 395.5 77.0 L 396.5 78.0 L 396.5 86.0 L 397.5 87.0 L 405.5 158.0 L 426.0 164.5 L 455.0 176.5 L 488.0 195.5 L 498.0 203.5 L 511.5 218.0 L 516.5 227.0 L 518.5 235.0 L 517.5 246.0 L 512.5 256.0 L 506.0 263.5 L 491.0 274.5 L 475.0 282.5 L 453.0 290.5 L 428.0 295.5 L 421.0 298.5 L 391.0 302.5 L 390.0 303.5 L 383.0 303.5 L 382.0 304.5 Z"/><path fill="#e8332a" fill-rule="evenodd" d="M 321.0 245.5 L 276.0 245.5 L 275.0 244.5 L 241.0 242.5 L 240.0 241.5 L 227.0 240.5 L 201.0 235.5 L 168.0 225.5 L 151.0 217.5 L 145.0 213.5 L 135.5 204.0 L 127.5 190.0 L 127.5 187.0 L 125.5 183.0 L 125.5 173.0 L 126.5 173.0 L 126.5 175.0 L 130.5 182.0 L 143.0 193.5 L 160.0 202.5 L 173.0 207.5 L 221.0 218.5 L 251.0 221.5 L 252.0 222.5 L 262.0 222.5 L 263.0 223.5 L 278.0 223.5 L 279.0 224.5 L 333.0 223.5 L 334.0 222.5 L 355.0 220.5 L 372.0 216.5 L 378.0 214.5 L 396.0 204.5 L 404.5 195.0 L 407.0 189.5 L 406.5 201.0 L 401.5 214.0 L 392.0 224.5 L 382.0 231.5 L 373.0 235.5 L 356.0 240.5 L 340.0 243.5 L 333.0 243.5 L 332.0 244.5 L 322.0 244.5 L 321.0 245.5 Z"/></svg>